<?xml version="1.0" standalone="no"?><!DOCTYPE svg PUBLIC "-//W3C//DTD SVG 1.1//EN" "http://www.w3.org/Graphics/SVG/1.1/DTD/svg11.dtd"><svg t="1608255966609" class="icon" viewBox="0 0 1024 1024" version="1.1" xmlns="http://www.w3.org/2000/svg" p-id="24331" xmlns:xlink="http://www.w3.org/1999/xlink" width="512" height="512"><defs><style type="text/css"></style></defs><path d="M1013.76 283.52L523.52 470.4c-7.68 3.2-16 3.2-23.68 0L10.24 286.08C3.84 282.88 0 276.48 0 269.44s4.48-12.8 10.88-16L499.84 57.6c3.2-1.28 7.04-2.56 10.88-2.56 3.84 0 7.68 0.64 10.88 2.56l491.52 193.92c6.4 2.56 10.88 8.96 10.88 16 0 7.04-3.84 12.8-10.24 16zM511.36 126.72L170.24 270.72 512 401.28l341.12-131.84-341.76-142.72z m153.6 424.32c14.72 8.96 24.32 24.96 24.32 41.6 0 17.28-8.96 33.28-24.32 42.24a47.36 47.36 0 0 1-48.64 0 47.552 47.552 0 0 1-23.68-41.6c0-17.28 8.96-33.28 24.32-42.24a49.28 49.28 0 0 1 48 0z m-355.2 42.24a48.64 48.64 0 1 1 48.64 48.64 49.024 49.024 0 0 1-48.64-48.64z m328.96 181.12v44.8c0 5.76-3.2 8.96-8.96 8.96H385.92c-5.76 0-8.96-3.2-8.96-8.96v-44.8c0-5.76 3.2-8.96 8.96-8.96h243.84c5.76 0 8.96 3.2 8.96 8.96zM198.4 459.52a34.944 34.944 0 0 1 34.56 34.56v388.48h534.4V494.08a34.944 34.944 0 0 1 34.56-34.56 34.944 34.944 0 0 1 34.56 34.56v409.6c0 26.24-21.76 48-48 48h-576c-26.24 0-48-21.76-48-48v-409.6c0-19.2 15.36-34.56 33.92-34.56z m735.36-108.8c16.64 0 30.08 13.44 30.08 30.08v276.48a30.08 30.08 0 1 1-60.16 0V380.8c0-16.64 13.44-30.08 30.08-30.08z" p-id="24332" fill="#1296db"></path></svg>