<?xml version="1.0" standalone="no"?><!DOCTYPE svg PUBLIC "-//W3C//DTD SVG 1.1//EN" "http://www.w3.org/Graphics/SVG/1.1/DTD/svg11.dtd"><svg t="1608255917012" class="icon" viewBox="0 0 1024 1024" version="1.1" xmlns="http://www.w3.org/2000/svg" p-id="22683" xmlns:xlink="http://www.w3.org/1999/xlink" width="512" height="512"><defs><style type="text/css"></style></defs><path d="M154.70035753 344.10546568m-97.99654716 0a97.99654717 97.99654717 0 1 0 195.99309433 0 97.99654717 97.99654717 0 1 0-195.99309433 0Z" p-id="22684" fill="#1296db"></path><path d="M540.73167013 155.87960098m-97.99654716 0a97.99654717 97.99654717 0 1 0 195.99309431 0 97.99654717 97.99654717 0 1 0-195.99309431 0Z" p-id="22685" fill="#1296db"></path><path d="M292.3097758 873.05380346m-97.99654716 0a97.99654717 97.99654717 0 1 0 195.99309433 0 97.99654717 97.99654717 0 1 0-195.99309433 0Z" p-id="22686" fill="#1296db"></path><path d="M870.45056791 708.64744296m-97.99654717 0a97.99654717 97.99654717 0 1 0 195.99309432 0 97.99654717 97.99654717 0 1 0-195.99309432 0Z" p-id="22687" fill="#1296db"></path><path d="M538.78986272 538.02729876m-97.99654716 0a97.99654717 97.99654717 0 1 0 195.99309431 0 97.99654717 97.99654717 0 1 0-195.99309431 0Z" p-id="22688" fill="#1296db"></path><path d="M868.5087605 392.52119703m-97.99654716 0a97.99654717 97.99654717 0 1 0 195.99309431 0 97.99654717 97.99654717 0 1 0-195.99309431 0Z" p-id="22689" fill="#1296db"></path><path d="M159.90699046 357.0107177l8.69411904-17.36364182 374.24324709 187.37276396-8.6928245 17.36364184z" p-id="22690" fill="#1296db"></path><path d="M531.79935606 184.35944296h19.41807407v353.1500405h-19.41807407z" p-id="22691" fill="#1296db"></path><path d="M316.46197634 874.34834172l-15.84903207-11.21717411L529.38115856 539.91732464l15.84903206 11.21717412z" p-id="22692" fill="#1296db"></path><path d="M869.25441454 383.33385893l8.06238436 17.66397471L548.75521833 550.95973609l-8.06238435-17.66397471z" p-id="22693" fill="#1296db"></path><path d="M528.68469698 536.91787946l9.70903703-16.81605214 326.90457157 188.74368-9.70903704 16.81605214z" p-id="22694" fill="#1296db"></path></svg>