<?xml version="1.0" standalone="no"?><!DOCTYPE svg PUBLIC "-//W3C//DTD SVG 1.1//EN" "http://www.w3.org/Graphics/SVG/1.1/DTD/svg11.dtd"><svg t="1608255638214" class="icon" viewBox="0 0 1024 1024" version="1.1" xmlns="http://www.w3.org/2000/svg" p-id="7548" xmlns:xlink="http://www.w3.org/1999/xlink" width="512" height="512"><defs><style type="text/css"></style></defs><path d="M499.672615 93.499077a27.569231 27.569231 0 0 1 24.65477 0l393.846153 196.923077a27.569231 27.569231 0 0 1 0 49.309538l-393.846153 196.923077a27.569231 27.569231 0 0 1-24.65477 0l-393.846153-196.923077a27.569231 27.569231 0 0 1 0-49.309538l393.846153-196.923077zM512 148.992L179.790769 315.076923 512 481.161846 844.209231 315.076923 512 148.992zM512 875.008l381.518769-190.739692a27.569231 27.569231 0 1 1 24.654769 49.309538l-393.846153 196.923077a27.569231 27.569231 0 0 1-24.65477 0l-393.846153-196.923077a27.569231 27.569231 0 1 1 24.654769-49.309538L512 875.008z" fill="#1296db" p-id="7549"></path><path d="M893.518769 487.345231a27.569231 27.569231 0 1 1 24.654769 49.309538l-393.846153 196.923077a27.569231 27.569231 0 0 1-24.65477 0l-393.846153-196.923077a27.569231 27.569231 0 1 1 24.654769-49.309538L512 678.084923l381.518769-190.739692z" fill="#1296db" p-id="7550"></path></svg>