<?xml version="1.0" standalone="no"?><!DOCTYPE svg PUBLIC "-//W3C//DTD SVG 1.1//EN" "http://www.w3.org/Graphics/SVG/1.1/DTD/svg11.dtd"><svg t="1608256535055" class="icon" viewBox="0 0 1024 1024" version="1.1" xmlns="http://www.w3.org/2000/svg" p-id="3188" xmlns:xlink="http://www.w3.org/1999/xlink" width="512" height="512"><defs><style type="text/css"></style></defs><path d="M512 960C264.6 960 64 759.4 64 512S264.6 64 512 64s448 200.6 448 448-200.6 448-448 448z m0-846.2c-219.9 0-398.2 178.3-398.2 398.2S292.1 910.2 512 910.2c219.9 0 398.2-178.3 398.2-398.2S731.9 113.8 512 113.8z m-51.6 553.1l-25 44-173-101.7 25-44 23.9 14.1v-17.5h449.6v51.3H369l91.4 53.8zM711.1 445v17.2h-448v-49.8h391.6l-92-53.1 24.9-43.1L760 415.8l-24.9 43.1-24-13.9z" fill="#1296db" p-id="3189"></path></svg>